<?xml version="1.0" encoding="utf-8"?>
<!-- Generator: Adobe Illustrator 27.4.0, SVG Export Plug-In . SVG Version: 6.00 Build 0)  -->
<svg version="1.1" id="Laag_1" xmlns="http://www.w3.org/2000/svg" xmlns:xlink="http://www.w3.org/1999/xlink" x="0px" y="0px"
	 viewBox="0 0 36 36" style="enable-background:new 0 0 36 36;" xml:space="preserve">
<style type="text/css">
	.st0{fill:#8E8E8E;}
</style>
<g>
	<path class="st0" d="M18,3c8.2,0,14.9,6.7,15,14.9c0,4-1.5,7.8-4.3,10.6c-2.8,2.9-6.6,4.4-10.6,4.5L18,33C9.8,33,3.1,26.3,3,18.1
		c0-4,1.5-7.8,4.3-10.6C10.1,4.6,13.9,3,17.9,3L18,3L18,3 M18,0c0,0-0.1,0-0.1,0C7.9,0.1-0.1,8.2,0,18.1C0.1,28,8.1,36,18,36
		c0,0,0.1,0,0.1,0c9.9-0.1,17.9-8.2,17.9-18.1C35.9,8,27.9,0,18,0L18,0z"/>
</g>
</svg>
